<?xml version="1.0"?>
<svg xmlns="http://www.w3.org/2000/svg" id="Capa_1" enable-background="new 0 0 512 512" height="512px" viewBox="0 0 512 512" width="512px"><g><g><path d="m414.47 215.857v-73.648c0-12.43-10.113-22.544-22.544-22.544s-22.544 10.114-22.544 22.544v41.187h-19.32v-89.334c0-51.866-42.196-94.062-94.062-94.062-15.372 0-30.627 3.793-44.115 10.968-3.663 1.949-5.054 6.499-3.105 10.163 1.948 3.662 6.497 5.058 10.163 3.105 11.323-6.022 24.137-9.206 37.057-9.206 40.881 0 74.611 31.202 78.629 71.042h-22.077c-4.151 0-7.515 3.364-7.515 7.515s3.364 7.515 7.515 7.515h22.48v23.9h-22.48c-4.151 0-7.515 3.364-7.515 7.515s3.364 7.515 7.515 7.515h22.48v23.901h-22.48c-4.151 0-7.515 3.364-7.515 7.515s3.364 7.515 7.515 7.515h22.48v23.9h-22.48c-4.151 0-7.515 3.364-7.515 7.515s3.364 7.515 7.515 7.515h22.077c-4.019 39.839-37.748 71.041-78.629 71.041s-74.611-31.202-78.629-71.041h22.077c4.151 0 7.515-3.364 7.515-7.515s-3.364-7.515-7.515-7.515h-22.48v-23.9h22.48c4.151 0 7.515-3.364 7.515-7.515s-3.364-7.515-7.515-7.515h-22.48v-23.903h22.48c4.151 0 7.515-3.364 7.515-7.515s-3.364-7.515-7.515-7.515h-22.48v-23.9h22.48c4.151 0 7.515-3.364 7.515-7.515s-3.364-7.515-7.515-7.515h-22.065c1.684-16.655 8.592-32.367 19.896-44.906 2.779-3.082 2.533-7.834-.55-10.613-3.081-2.78-7.835-2.533-10.613.55-15.592 17.295-24.178 39.654-24.178 62.959v89.335h-19.32v-41.187c0-12.43-10.113-22.544-22.544-22.544s-22.544 10.114-22.544 22.544v73.648c0 78.122 56.824 143.213 131.309 156.132v91.215h-67.959c-13.453 0-24.398 10.945-24.398 24.398s10.945 24.397 24.398 24.397h33.392c4.151 0 7.515-3.364 7.515-7.515s-3.364-7.515-7.515-7.515h-33.392c-5.166 0-9.369-4.203-9.369-9.369 0-5.165 4.203-9.368 9.369-9.368h190.239c5.166 0 9.369 4.203 9.369 9.369 0 5.165-4.203 9.368-9.369 9.368h-126.787c-4.151 0-7.515 3.364-7.515 7.515s3.364 7.515 7.515 7.515h126.788c13.453 0 24.398-10.945 24.398-24.398s-10.945-24.397-24.398-24.397h-67.958v-91.215c74.484-12.918 131.308-78.01 131.308-156.131zm-301.91 0v-73.648c0-4.144 3.371-7.515 7.515-7.515s7.515 3.371 7.515 7.515v73.648c0 70.806 57.605 128.411 128.411 128.411 26.102 0 51.243-7.819 72.704-22.612 3.418-2.356 4.279-7.035 1.923-10.452-2.353-3.417-7.034-4.281-10.451-1.923-18.943 13.056-41.135 19.957-64.176 19.957-62.519 0-113.382-50.863-113.382-113.382v-17.432h19.32v11.474c0 51.866 42.196 94.062 94.062 94.062s94.062-42.196 94.062-94.062v-11.474h19.32v17.432c0 27.456-9.983 53.966-28.11 74.646-2.736 3.12-2.424 7.868.698 10.604 3.119 2.737 7.868 2.424 10.604-.698 20.531-23.422 31.838-53.449 31.838-84.552v-73.648c0-4.144 3.371-7.515 7.515-7.515s7.515 3.371 7.515 7.515v73.648c0 79.093-64.347 143.44-143.44 143.44s-143.443-64.346-143.443-143.439zm155.572 247.347h-24.263v-89.338c4.005.305 8.05.46 12.131.46 4.082 0 8.127-.156 12.132-.46z" data-original="#000000" class="active-path" data-old_color="#000000" fill="#33D0F2"/></g></g> </svg>
